<svg width="32" height="32" viewBox="0 0 32 32" xmlns="http://www.w3.org/2000/svg">
  <defs>
    <linearGradient id="carGrad" x1="0%" y1="0%" x2="100%" y2="100%">
      <stop offset="0%" style="stop-color:#00bcd4;stop-opacity:1" />
      <stop offset="100%" style="stop-color:#2196f3;stop-opacity:1" />
    </linearGradient>
  </defs>
  
  <!-- Background Circle -->
  <circle cx="16" cy="16" r="15" fill="url(#carGrad)" stroke="#1976d2" stroke-width="2"/>
  
  <!-- Simplified Car Icon -->
  <g transform="translate(8, 8)">
    <!-- Car Body -->
    <path d="M2 6 C3 4, 6 3, 10 3 L14 3 C14 3, 15 4, 16 6 L16 8 C16 9, 15 10, 14 10 L2 10 C1 10, 1 9, 2 8 Z" 
          fill="#ffffff" opacity="0.9"/>
    
    <!-- Car Wheels -->
    <circle cx="4" cy="10" r="2" fill="#424242"/>
    <circle cx="12" cy="10" r="2" fill="#424242"/>
    <circle cx="4" cy="10" r="1" fill="#757575"/>
    <circle cx="12" cy="10" r="1" fill="#757575"/>
    
    <!-- Car Window -->
    <rect x="6" y="5" width="4" height="2" fill="#81d4fa" opacity="0.8" rx="1"/>
  </g>
</svg>